<?xml version="1.0" encoding="UTF-8" standalone="no"?>
<svg
   viewBox="0 0 8.9758643 9.5213803"
   version="1.1"
   id="svg4"
   sodipodi:docname="gear-solid.svg"
   width="8.9758644"
   height="9.5213804"
   inkscape:version="1.1.2 (0a00cf5339, 2022-02-04)"
   xmlns:inkscape="http://www.inkscape.org/namespaces/inkscape"
   xmlns:sodipodi="http://sodipodi.sourceforge.net/DTD/sodipodi-0.dtd"
   xmlns="http://www.w3.org/2000/svg"
   xmlns:svg="http://www.w3.org/2000/svg">
  <defs
     id="defs8" />
  <sodipodi:namedview
     id="namedview6"
     pagecolor="#ffffff"
     bordercolor="#666666"
     borderopacity="1.0"
     inkscape:pageshadow="2"
     inkscape:pageopacity="0.0"
     inkscape:pagecheckerboard="0"
     showgrid="false"
     inkscape:zoom="26.375"
     inkscape:cx="12.246446"
     inkscape:cy="11.317536"
     inkscape:window-width="1861"
     inkscape:window-height="1016"
     inkscape:window-x="59"
     inkscape:window-y="27"
     inkscape:window-maximized="1"
     inkscape:current-layer="svg4" />
  <!--! Font Awesome Pro 6.4.2 by @fontawesome - https://fontawesome.com License - https://fontawesome.com/license (Commercial License) Copyright 2023 Fonticons, Inc. -->
  <path
     d="m 8.9509823,3.0988 c 0.0595,0.16182 0.009,0.34224 -0.11904,0.45756 l -0.80538,0.73284 c 0.0205,0.15438 0.0316,0.31248 0.0316,0.47244 0,0.15996 -0.0112,0.31806 -0.0316,0.47244 l 0.80538,0.73284 c 0.12834,0.11532 0.17856,0.29574 0.11904,0.45756 -0.0818,0.22134 -0.18042,0.43338 -0.29388,0.63798 l -0.0874,0.15066 c -0.12276,0.2046 -0.2604,0.39804 -0.41106,0.58032 -0.10974,0.13392 -0.29202,0.17856 -0.4557,0.12648 L 6.6669223,7.5907 c -0.24924,0.19158 -0.52452,0.35154 -0.8184,0.47244 l -0.2325,1.06206 c -0.0372,0.16926 -0.1674,0.30318 -0.33852,0.33108 -0.25668,0.0428 -0.5208,0.0651 -0.7905,0.0651 -0.2697,0 -0.53382,-0.0223 -0.7905,-0.0651 -0.17112,-0.0279 -0.30132,-0.16182 -0.33852,-0.33108 l -0.2325,-1.06206 c -0.29388,-0.1209 -0.56916,-0.28086 -0.8184,-0.47244 l -1.03416,0.33108 c -0.16368,0.0521 -0.34596002,0.006 -0.45570002,-0.12648 -0.15066,-0.18228 -0.2883,-0.37572 -0.41106,-0.58032 l -0.0874,-0.15066 c -0.11346,-0.2046 -0.21204,-0.41664 -0.29388,-0.63798 -0.0595,-0.16182 -0.009,-0.34224 0.11904,-0.45756 l 0.80538,-0.73284 c -0.0205,-0.15624 -0.0316,-0.31434 -0.0316,-0.4743 0,-0.15996 0.0112,-0.31806 0.0316,-0.47244 l -0.80538,-0.73284 c -0.12834,-0.11532 -0.17856,-0.29574 -0.11904,-0.45756 0.0818,-0.22134 0.18042,-0.43338 0.29388,-0.63798 l 0.0874,-0.15066 c 0.12276,-0.2046 0.2604,-0.39804 0.41106,-0.58032 0.10974,-0.13392 0.29202002,-0.17856 0.45570002,-0.12648 l 1.03602,0.32922 c 0.24924,-0.19158 0.52452,-0.35154 0.8184,-0.47244 l 0.2325,-1.06206 c 0.0372,-0.16926 0.1674,-0.30318 0.33852,-0.33108 0.25668,-0.0446 0.5208,-0.067 0.7905,-0.067 0.2697,0 0.53382,0.0223 0.7905,0.0651 0.17112,0.0279 0.30132,0.16182 0.33852,0.33108 l 0.2325,1.06206 c 0.29388,0.1209 0.56916,0.28086 0.8184,0.47244 l 1.03602,-0.32922 c 0.16368,-0.0521 0.34596,-0.006 0.4557,0.12648 0.15066,0.18228 0.2883,0.37572 0.41106,0.58032 l 0.0874,0.15066 c 0.11346,0.2046 0.21204,0.41664 0.29388,0.63798 z m -4.46214,3.15084 a 1.488,1.488 0 1 0 0,-2.976 1.488,1.488 0 1 0 0,2.976 z"
     id="path2"
     style="stroke-width:0.0186" />
</svg>
